<mxfile host="65bd71144e">
    <diagram id="R2lEEEUBdFMjLlhIrx00" name="Page-1">
        <mxGraphModel dx="1473" dy="2018" grid="1" gridSize="10" guides="1" tooltips="1" connect="1" arrows="1" fold="1" page="1" pageScale="1" pageWidth="850" pageHeight="1100" math="0" shadow="0" extFonts="Permanent Marker^https://fonts.googleapis.com/css?family=Permanent+Marker">
            <root>
                <mxCell id="0"/>
                <mxCell id="1" parent="0"/>
                <mxCell id="F9UExPvMhBfRExoex4r--15" value="Businesses" style="swimlane;fontStyle=0;childLayout=stackLayout;horizontal=1;startSize=30;horizontalStack=0;resizeParent=1;resizeParentMax=0;resizeLast=0;collapsible=1;marginBottom=0;" parent="1" vertex="1">
                    <mxGeometry x="-280" y="80" width="160" height="770" as="geometry"/>
                </mxCell>
                <mxCell id="F9UExPvMhBfRExoex4r--16" value="businessID" style="text;strokeColor=none;fillColor=none;align=left;verticalAlign=middle;spacingLeft=4;spacingRight=4;overflow=hidden;points=[[0,0.5],[1,0.5]];portConstraint=eastwest;rotatable=0;fontStyle=4" parent="F9UExPvMhBfRExoex4r--15" vertex="1">
                    <mxGeometry y="30" width="160" height="20" as="geometry"/>
                </mxCell>
                <mxCell id="F9UExPvMhBfRExoex4r--34" value="name" style="text;strokeColor=none;fillColor=none;align=left;verticalAlign=middle;spacingLeft=4;spacingRight=4;overflow=hidden;points=[[0,0.5],[1,0.5]];portConstraint=eastwest;rotatable=0;fontStyle=0" parent="F9UExPvMhBfRExoex4r--15" vertex="1">
                    <mxGeometry y="50" width="160" height="20" as="geometry"/>
                </mxCell>
                <mxCell id="2" value="address" style="text;strokeColor=none;fillColor=none;align=left;verticalAlign=middle;spacingLeft=4;spacingRight=4;overflow=hidden;points=[[0,0.5],[1,0.5]];portConstraint=eastwest;rotatable=0;fontStyle=0" parent="F9UExPvMhBfRExoex4r--15" vertex="1">
                    <mxGeometry y="70" width="160" height="20" as="geometry"/>
                </mxCell>
                <mxCell id="3" value="    street_number_name" style="text;strokeColor=none;fillColor=none;align=left;verticalAlign=middle;spacingLeft=4;spacingRight=4;overflow=hidden;points=[[0,0.5],[1,0.5]];portConstraint=eastwest;rotatable=0;fontStyle=0" parent="F9UExPvMhBfRExoex4r--15" vertex="1">
                    <mxGeometry y="90" width="160" height="20" as="geometry"/>
                </mxCell>
                <mxCell id="5" value="    city" style="text;strokeColor=none;fillColor=none;align=left;verticalAlign=middle;spacingLeft=4;spacingRight=4;overflow=hidden;points=[[0,0.5],[1,0.5]];portConstraint=eastwest;rotatable=0;fontStyle=0" parent="F9UExPvMhBfRExoex4r--15" vertex="1">
                    <mxGeometry y="110" width="160" height="20" as="geometry"/>
                </mxCell>
                <mxCell id="4" value="    state" style="text;strokeColor=none;fillColor=none;align=left;verticalAlign=middle;spacingLeft=4;spacingRight=4;overflow=hidden;points=[[0,0.5],[1,0.5]];portConstraint=eastwest;rotatable=0;fontStyle=0" parent="F9UExPvMhBfRExoex4r--15" vertex="1">
                    <mxGeometry y="130" width="160" height="20" as="geometry"/>
                </mxCell>
                <mxCell id="6" value="    postal_code" style="text;strokeColor=none;fillColor=none;align=left;verticalAlign=middle;spacingLeft=4;spacingRight=4;overflow=hidden;points=[[0,0.5],[1,0.5]];portConstraint=eastwest;rotatable=0;fontStyle=0" parent="F9UExPvMhBfRExoex4r--15" vertex="1">
                    <mxGeometry y="150" width="160" height="20" as="geometry"/>
                </mxCell>
                <mxCell id="7" value="latitude" style="text;strokeColor=none;fillColor=none;align=left;verticalAlign=middle;spacingLeft=4;spacingRight=4;overflow=hidden;points=[[0,0.5],[1,0.5]];portConstraint=eastwest;rotatable=0;fontStyle=0" parent="F9UExPvMhBfRExoex4r--15" vertex="1">
                    <mxGeometry y="170" width="160" height="20" as="geometry"/>
                </mxCell>
                <mxCell id="8" value="longitude" style="text;strokeColor=none;fillColor=none;align=left;verticalAlign=middle;spacingLeft=4;spacingRight=4;overflow=hidden;points=[[0,0.5],[1,0.5]];portConstraint=eastwest;rotatable=0;fontStyle=0" parent="F9UExPvMhBfRExoex4r--15" vertex="1">
                    <mxGeometry y="190" width="160" height="20" as="geometry"/>
                </mxCell>
                <mxCell id="xQcT5AhBIkMw7Sv3e7_h-10" value="is_open" style="text;strokeColor=none;fillColor=none;align=left;verticalAlign=middle;spacingLeft=4;spacingRight=4;overflow=hidden;points=[[0,0.5],[1,0.5]];portConstraint=eastwest;rotatable=0;fontStyle=0" parent="F9UExPvMhBfRExoex4r--15" vertex="1">
                    <mxGeometry y="210" width="160" height="20" as="geometry"/>
                </mxCell>
                <mxCell id="xQcT5AhBIkMw7Sv3e7_h-182" value="{categories}" style="text;strokeColor=none;fillColor=none;align=left;verticalAlign=middle;spacingLeft=4;spacingRight=4;overflow=hidden;points=[[0,0.5],[1,0.5]];portConstraint=eastwest;rotatable=0;fontStyle=0" parent="F9UExPvMhBfRExoex4r--15" vertex="1">
                    <mxGeometry y="230" width="160" height="20" as="geometry"/>
                </mxCell>
                <mxCell id="xQcT5AhBIkMw7Sv3e7_h-183" value="{hours}" style="text;strokeColor=none;fillColor=none;align=left;verticalAlign=middle;spacingLeft=4;spacingRight=4;overflow=hidden;points=[[0,0.5],[1,0.5]];portConstraint=eastwest;rotatable=0;fontStyle=0" parent="F9UExPvMhBfRExoex4r--15" vertex="1">
                    <mxGeometry y="250" width="160" height="20" as="geometry"/>
                </mxCell>
                <mxCell id="85" value="    start_time" style="text;strokeColor=none;fillColor=none;align=left;verticalAlign=middle;spacingLeft=4;spacingRight=4;overflow=hidden;points=[[0,0.5],[1,0.5]];portConstraint=eastwest;rotatable=0;fontStyle=0" vertex="1" parent="F9UExPvMhBfRExoex4r--15">
                    <mxGeometry y="270" width="160" height="20" as="geometry"/>
                </mxCell>
                <mxCell id="87" value="    end_time" style="text;strokeColor=none;fillColor=none;align=left;verticalAlign=middle;spacingLeft=4;spacingRight=4;overflow=hidden;points=[[0,0.5],[1,0.5]];portConstraint=eastwest;rotatable=0;fontStyle=0" vertex="1" parent="F9UExPvMhBfRExoex4r--15">
                    <mxGeometry y="290" width="160" height="20" as="geometry"/>
                </mxCell>
                <mxCell id="xQcT5AhBIkMw7Sv3e7_h-186" value="attributes" style="text;strokeColor=none;fillColor=none;align=left;verticalAlign=middle;spacingLeft=4;spacingRight=4;overflow=hidden;points=[[0,0.5],[1,0.5]];portConstraint=eastwest;rotatable=0;fontStyle=0" parent="F9UExPvMhBfRExoex4r--15" vertex="1">
                    <mxGeometry y="310" width="160" height="20" as="geometry"/>
                </mxCell>
                <mxCell id="xQcT5AhBIkMw7Sv3e7_h-26" value="    wifi" style="text;strokeColor=none;fillColor=none;align=left;verticalAlign=middle;spacingLeft=4;spacingRight=4;overflow=hidden;points=[[0,0.5],[1,0.5]];portConstraint=eastwest;rotatable=0;fontStyle=0" parent="F9UExPvMhBfRExoex4r--15" vertex="1">
                    <mxGeometry y="330" width="160" height="20" as="geometry"/>
                </mxCell>
                <mxCell id="xQcT5AhBIkMw7Sv3e7_h-29" value="    bike_parking" style="text;strokeColor=none;fillColor=none;align=left;verticalAlign=middle;spacingLeft=4;spacingRight=4;overflow=hidden;points=[[0,0.5],[1,0.5]];portConstraint=eastwest;rotatable=0;fontStyle=0" parent="F9UExPvMhBfRExoex4r--15" vertex="1">
                    <mxGeometry y="350" width="160" height="20" as="geometry"/>
                </mxCell>
                <mxCell id="xQcT5AhBIkMw7Sv3e7_h-37" value="    wheel_chair_accessible" style="text;strokeColor=none;fillColor=none;align=left;verticalAlign=middle;spacingLeft=4;spacingRight=4;overflow=hidden;points=[[0,0.5],[1,0.5]];portConstraint=eastwest;rotatable=0;fontStyle=0" parent="F9UExPvMhBfRExoex4r--15" vertex="1">
                    <mxGeometry y="370" width="160" height="20" as="geometry"/>
                </mxCell>
                <mxCell id="xQcT5AhBIkMw7Sv3e7_h-35" value="    accepts_credit_cards" style="text;strokeColor=none;fillColor=none;align=left;verticalAlign=middle;spacingLeft=4;spacingRight=4;overflow=hidden;points=[[0,0.5],[1,0.5]];portConstraint=eastwest;rotatable=0;fontStyle=0" parent="F9UExPvMhBfRExoex4r--15" vertex="1">
                    <mxGeometry y="390" width="160" height="20" as="geometry"/>
                </mxCell>
                <mxCell id="xQcT5AhBIkMw7Sv3e7_h-38" value="    caters" style="text;strokeColor=none;fillColor=none;align=left;verticalAlign=middle;spacingLeft=4;spacingRight=4;overflow=hidden;points=[[0,0.5],[1,0.5]];portConstraint=eastwest;rotatable=0;fontStyle=0" parent="F9UExPvMhBfRExoex4r--15" vertex="1">
                    <mxGeometry y="410" width="160" height="20" as="geometry"/>
                </mxCell>
                <mxCell id="xQcT5AhBIkMw7Sv3e7_h-39" value="    outdoor_seating" style="text;strokeColor=none;fillColor=none;align=left;verticalAlign=middle;spacingLeft=4;spacingRight=4;overflow=hidden;points=[[0,0.5],[1,0.5]];portConstraint=eastwest;rotatable=0;fontStyle=0" parent="F9UExPvMhBfRExoex4r--15" vertex="1">
                    <mxGeometry y="430" width="160" height="20" as="geometry"/>
                </mxCell>
                <mxCell id="xQcT5AhBIkMw7Sv3e7_h-66" value="    happy_hour" style="text;strokeColor=none;fillColor=none;align=left;verticalAlign=middle;spacingLeft=4;spacingRight=4;overflow=hidden;points=[[0,0.5],[1,0.5]];portConstraint=eastwest;rotatable=0;fontStyle=0" parent="F9UExPvMhBfRExoex4r--15" vertex="1">
                    <mxGeometry y="450" width="160" height="20" as="geometry"/>
                </mxCell>
                <mxCell id="xQcT5AhBIkMw7Sv3e7_h-67" value="    accepts_bitcoin" style="text;strokeColor=none;fillColor=none;align=left;verticalAlign=middle;spacingLeft=4;spacingRight=4;overflow=hidden;points=[[0,0.5],[1,0.5]];portConstraint=eastwest;rotatable=0;fontStyle=0" parent="F9UExPvMhBfRExoex4r--15" vertex="1">
                    <mxGeometry y="470" width="160" height="20" as="geometry"/>
                </mxCell>
                <mxCell id="xQcT5AhBIkMw7Sv3e7_h-70" value="    alcohol" style="text;strokeColor=none;fillColor=none;align=left;verticalAlign=middle;spacingLeft=4;spacingRight=4;overflow=hidden;points=[[0,0.5],[1,0.5]];portConstraint=eastwest;rotatable=0;fontStyle=0" parent="F9UExPvMhBfRExoex4r--15" vertex="1">
                    <mxGeometry y="490" width="160" height="20" as="geometry"/>
                </mxCell>
                <mxCell id="xQcT5AhBIkMw7Sv3e7_h-69" value="    has_tv" style="text;strokeColor=none;fillColor=none;align=left;verticalAlign=middle;spacingLeft=4;spacingRight=4;overflow=hidden;points=[[0,0.5],[1,0.5]];portConstraint=eastwest;rotatable=0;fontStyle=0" parent="F9UExPvMhBfRExoex4r--15" vertex="1">
                    <mxGeometry y="510" width="160" height="20" as="geometry"/>
                </mxCell>
                <mxCell id="xQcT5AhBIkMw7Sv3e7_h-73" value="    noise_level" style="text;strokeColor=none;fillColor=none;align=left;verticalAlign=middle;spacingLeft=4;spacingRight=4;overflow=hidden;points=[[0,0.5],[1,0.5]];portConstraint=eastwest;rotatable=0;fontStyle=0" parent="F9UExPvMhBfRExoex4r--15" vertex="1">
                    <mxGeometry y="530" width="160" height="20" as="geometry"/>
                </mxCell>
                <mxCell id="xQcT5AhBIkMw7Sv3e7_h-177" value="    {ambience}" style="text;strokeColor=none;fillColor=none;align=left;verticalAlign=middle;spacingLeft=4;spacingRight=4;overflow=hidden;points=[[0,0.5],[1,0.5]];portConstraint=eastwest;rotatable=0;fontStyle=0" parent="F9UExPvMhBfRExoex4r--15" vertex="1">
                    <mxGeometry y="550" width="160" height="20" as="geometry"/>
                </mxCell>
                <mxCell id="xQcT5AhBIkMw7Sv3e7_h-178" value="    {music}" style="text;strokeColor=none;fillColor=none;align=left;verticalAlign=middle;spacingLeft=4;spacingRight=4;overflow=hidden;points=[[0,0.5],[1,0.5]];portConstraint=eastwest;rotatable=0;fontStyle=0" parent="F9UExPvMhBfRExoex4r--15" vertex="1">
                    <mxGeometry y="570" width="160" height="20" as="geometry"/>
                </mxCell>
                <mxCell id="xQcT5AhBIkMw7Sv3e7_h-179" value="    {business_parking}" style="text;strokeColor=none;fillColor=none;align=left;verticalAlign=middle;spacingLeft=4;spacingRight=4;overflow=hidden;points=[[0,0.5],[1,0.5]];portConstraint=eastwest;rotatable=0;fontStyle=0" parent="F9UExPvMhBfRExoex4r--15" vertex="1">
                    <mxGeometry y="590" width="160" height="20" as="geometry"/>
                </mxCell>
                <mxCell id="xQcT5AhBIkMw7Sv3e7_h-181" value="    {best_nights}" style="text;strokeColor=none;fillColor=none;align=left;verticalAlign=middle;spacingLeft=4;spacingRight=4;overflow=hidden;points=[[0,0.5],[1,0.5]];portConstraint=eastwest;rotatable=0;fontStyle=0" parent="F9UExPvMhBfRExoex4r--15" vertex="1">
                    <mxGeometry y="610" width="160" height="20" as="geometry"/>
                </mxCell>
                <mxCell id="xQcT5AhBIkMw7Sv3e7_h-185" value="    {dietary_restrictions}" style="text;strokeColor=none;fillColor=none;align=left;verticalAlign=middle;spacingLeft=4;spacingRight=4;overflow=hidden;points=[[0,0.5],[1,0.5]];portConstraint=eastwest;rotatable=0;fontStyle=0" parent="F9UExPvMhBfRExoex4r--15" vertex="1">
                    <mxGeometry y="630" width="160" height="20" as="geometry"/>
                </mxCell>
                <mxCell id="xQcT5AhBIkMw7Sv3e7_h-184" value="    {hair_specializes_in}" style="text;strokeColor=none;fillColor=none;align=left;verticalAlign=middle;spacingLeft=4;spacingRight=4;overflow=hidden;points=[[0,0.5],[1,0.5]];portConstraint=eastwest;rotatable=0;fontStyle=0" parent="F9UExPvMhBfRExoex4r--15" vertex="1">
                    <mxGeometry y="650" width="160" height="20" as="geometry"/>
                </mxCell>
                <mxCell id="xQcT5AhBIkMw7Sv3e7_h-71" value="    dogs_allowed" style="text;strokeColor=none;fillColor=none;align=left;verticalAlign=middle;spacingLeft=4;spacingRight=4;overflow=hidden;points=[[0,0.5],[1,0.5]];portConstraint=eastwest;rotatable=0;fontStyle=0" parent="F9UExPvMhBfRExoex4r--15" vertex="1">
                    <mxGeometry y="670" width="160" height="20" as="geometry"/>
                </mxCell>
                <mxCell id="xQcT5AhBIkMw7Sv3e7_h-190" value="    {good_for_meal}" style="text;strokeColor=none;fillColor=none;align=left;verticalAlign=middle;spacingLeft=4;spacingRight=4;overflow=hidden;points=[[0,0.5],[1,0.5]];portConstraint=eastwest;rotatable=0;fontStyle=0" parent="F9UExPvMhBfRExoex4r--15" vertex="1">
                    <mxGeometry y="690" width="160" height="20" as="geometry"/>
                </mxCell>
                <mxCell id="xQcT5AhBIkMw7Sv3e7_h-198" value="{checkin}" style="text;strokeColor=none;fillColor=none;align=left;verticalAlign=middle;spacingLeft=4;spacingRight=4;overflow=hidden;points=[[0,0.5],[1,0.5]];portConstraint=eastwest;rotatable=0;fontStyle=0" parent="F9UExPvMhBfRExoex4r--15" vertex="1">
                    <mxGeometry y="710" width="160" height="20" as="geometry"/>
                </mxCell>
                <mxCell id="98" value="stars" style="text;strokeColor=none;fillColor=none;align=left;verticalAlign=middle;spacingLeft=4;spacingRight=4;overflow=hidden;points=[[0,0.5],[1,0.5]];portConstraint=eastwest;rotatable=0;fontStyle=0" vertex="1" parent="F9UExPvMhBfRExoex4r--15">
                    <mxGeometry y="730" width="160" height="20" as="geometry"/>
                </mxCell>
                <mxCell id="99" value="review_count" style="text;strokeColor=none;fillColor=none;align=left;verticalAlign=middle;spacingLeft=4;spacingRight=4;overflow=hidden;points=[[0,0.5],[1,0.5]];portConstraint=eastwest;rotatable=0;fontStyle=0" vertex="1" parent="F9UExPvMhBfRExoex4r--15">
                    <mxGeometry y="750" width="160" height="20" as="geometry"/>
                </mxCell>
                <mxCell id="xQcT5AhBIkMw7Sv3e7_h-76" value="Restaurant" style="swimlane;fontStyle=0;childLayout=stackLayout;horizontal=1;startSize=30;horizontalStack=0;resizeParent=1;resizeParentMax=0;resizeLast=0;collapsible=1;marginBottom=0;" parent="1" vertex="1">
                    <mxGeometry x="-280" y="879" width="160" height="210" as="geometry"/>
                </mxCell>
                <mxCell id="xQcT5AhBIkMw7Sv3e7_h-78" value="attributes" style="text;strokeColor=none;fillColor=none;align=left;verticalAlign=middle;spacingLeft=4;spacingRight=4;overflow=hidden;points=[[0,0.5],[1,0.5]];portConstraint=eastwest;rotatable=0;fontStyle=0" parent="xQcT5AhBIkMw7Sv3e7_h-76" vertex="1">
                    <mxGeometry y="30" width="160" height="20" as="geometry"/>
                </mxCell>
                <mxCell id="xQcT5AhBIkMw7Sv3e7_h-188" value="    table_service" style="text;strokeColor=none;fillColor=none;align=left;verticalAlign=middle;spacingLeft=4;spacingRight=4;overflow=hidden;points=[[0,0.5],[1,0.5]];portConstraint=eastwest;rotatable=0;fontStyle=0" parent="xQcT5AhBIkMw7Sv3e7_h-76" vertex="1">
                    <mxGeometry y="50" width="160" height="20" as="geometry"/>
                </mxCell>
                <mxCell id="xQcT5AhBIkMw7Sv3e7_h-82" value="    reservations" style="text;strokeColor=none;fillColor=none;align=left;verticalAlign=middle;spacingLeft=4;spacingRight=4;overflow=hidden;points=[[0,0.5],[1,0.5]];portConstraint=eastwest;rotatable=0;fontStyle=0" parent="xQcT5AhBIkMw7Sv3e7_h-76" vertex="1">
                    <mxGeometry y="70" width="160" height="20" as="geometry"/>
                </mxCell>
                <mxCell id="xQcT5AhBIkMw7Sv3e7_h-86" value="    good_for_groups" style="text;strokeColor=none;fillColor=none;align=left;verticalAlign=middle;spacingLeft=4;spacingRight=4;overflow=hidden;points=[[0,0.5],[1,0.5]];portConstraint=eastwest;rotatable=0;fontStyle=0" parent="xQcT5AhBIkMw7Sv3e7_h-76" vertex="1">
                    <mxGeometry y="90" width="160" height="20" as="geometry"/>
                </mxCell>
                <mxCell id="xQcT5AhBIkMw7Sv3e7_h-89" value="    price_range" style="text;strokeColor=none;fillColor=none;align=left;verticalAlign=middle;spacingLeft=4;spacingRight=4;overflow=hidden;points=[[0,0.5],[1,0.5]];portConstraint=eastwest;rotatable=0;fontStyle=0" parent="xQcT5AhBIkMw7Sv3e7_h-76" vertex="1">
                    <mxGeometry y="110" width="160" height="20" as="geometry"/>
                </mxCell>
                <mxCell id="xQcT5AhBIkMw7Sv3e7_h-94" value="    takeout" style="text;strokeColor=none;fillColor=none;align=left;verticalAlign=middle;spacingLeft=4;spacingRight=4;overflow=hidden;points=[[0,0.5],[1,0.5]];portConstraint=eastwest;rotatable=0;fontStyle=0" parent="xQcT5AhBIkMw7Sv3e7_h-76" vertex="1">
                    <mxGeometry y="130" width="160" height="20" as="geometry"/>
                </mxCell>
                <mxCell id="xQcT5AhBIkMw7Sv3e7_h-95" value="    attire" style="text;strokeColor=none;fillColor=none;align=left;verticalAlign=middle;spacingLeft=4;spacingRight=4;overflow=hidden;points=[[0,0.5],[1,0.5]];portConstraint=eastwest;rotatable=0;fontStyle=0" parent="xQcT5AhBIkMw7Sv3e7_h-76" vertex="1">
                    <mxGeometry y="150" width="160" height="20" as="geometry"/>
                </mxCell>
                <mxCell id="xQcT5AhBIkMw7Sv3e7_h-96" value="    delivery" style="text;strokeColor=none;fillColor=none;align=left;verticalAlign=middle;spacingLeft=4;spacingRight=4;overflow=hidden;points=[[0,0.5],[1,0.5]];portConstraint=eastwest;rotatable=0;fontStyle=0" parent="xQcT5AhBIkMw7Sv3e7_h-76" vertex="1">
                    <mxGeometry y="170" width="160" height="20" as="geometry"/>
                </mxCell>
                <mxCell id="100" value="    counter_service" style="text;strokeColor=none;fillColor=none;align=left;verticalAlign=middle;spacingLeft=4;spacingRight=4;overflow=hidden;points=[[0,0.5],[1,0.5]];portConstraint=eastwest;rotatable=0;fontStyle=0" vertex="1" parent="xQcT5AhBIkMw7Sv3e7_h-76">
                    <mxGeometry y="190" width="160" height="20" as="geometry"/>
                </mxCell>
                <mxCell id="56" value="Reviews" style="swimlane;fontStyle=0;childLayout=stackLayout;horizontal=1;startSize=30;horizontalStack=0;resizeParent=1;resizeParentMax=0;resizeLast=0;collapsible=1;marginBottom=0;" parent="1" vertex="1">
                    <mxGeometry y="-110" width="140" height="170" as="geometry"/>
                </mxCell>
                <mxCell id="57" value="reviewID" style="text;strokeColor=none;fillColor=none;align=left;verticalAlign=middle;spacingLeft=4;spacingRight=4;overflow=hidden;points=[[0,0.5],[1,0.5]];portConstraint=eastwest;rotatable=0;fontStyle=4" parent="56" vertex="1">
                    <mxGeometry y="30" width="140" height="20" as="geometry"/>
                </mxCell>
                <mxCell id="58" value="stars" style="text;strokeColor=none;fillColor=none;align=left;verticalAlign=middle;spacingLeft=4;spacingRight=4;overflow=hidden;points=[[0,0.5],[1,0.5]];portConstraint=eastwest;rotatable=0;fontStyle=0" parent="56" vertex="1">
                    <mxGeometry y="50" width="140" height="20" as="geometry"/>
                </mxCell>
                <mxCell id="59" value="useful" style="text;strokeColor=none;fillColor=none;align=left;verticalAlign=middle;spacingLeft=4;spacingRight=4;overflow=hidden;points=[[0,0.5],[1,0.5]];portConstraint=eastwest;rotatable=0;fontStyle=0" parent="56" vertex="1">
                    <mxGeometry y="70" width="140" height="20" as="geometry"/>
                </mxCell>
                <mxCell id="60" value="funny" style="text;strokeColor=none;fillColor=none;align=left;verticalAlign=middle;spacingLeft=4;spacingRight=4;overflow=hidden;points=[[0,0.5],[1,0.5]];portConstraint=eastwest;rotatable=0;fontStyle=0" parent="56" vertex="1">
                    <mxGeometry y="90" width="140" height="20" as="geometry"/>
                </mxCell>
                <mxCell id="61" value="cool" style="text;strokeColor=none;fillColor=none;align=left;verticalAlign=middle;spacingLeft=4;spacingRight=4;overflow=hidden;points=[[0,0.5],[1,0.5]];portConstraint=eastwest;rotatable=0;fontStyle=0" parent="56" vertex="1">
                    <mxGeometry y="110" width="140" height="20" as="geometry"/>
                </mxCell>
                <mxCell id="62" value="text" style="text;strokeColor=none;fillColor=none;align=left;verticalAlign=middle;spacingLeft=4;spacingRight=4;overflow=hidden;points=[[0,0.5],[1,0.5]];portConstraint=eastwest;rotatable=0;fontStyle=0" parent="56" vertex="1">
                    <mxGeometry y="130" width="140" height="20" as="geometry"/>
                </mxCell>
                <mxCell id="63" value="date" style="text;strokeColor=none;fillColor=none;align=left;verticalAlign=middle;spacingLeft=4;spacingRight=4;overflow=hidden;points=[[0,0.5],[1,0.5]];portConstraint=eastwest;rotatable=0;fontStyle=0" parent="56" vertex="1">
                    <mxGeometry y="150" width="140" height="20" as="geometry"/>
                </mxCell>
                <mxCell id="xQcT5AhBIkMw7Sv3e7_h-106" value="Tips" style="swimlane;fontStyle=0;childLayout=stackLayout;horizontal=1;startSize=30;horizontalStack=0;resizeParent=1;resizeParentMax=0;resizeLast=0;collapsible=1;marginBottom=0;" parent="1" vertex="1">
                    <mxGeometry x="-0.31" y="510" width="140" height="110" as="geometry"/>
                </mxCell>
                <mxCell id="xQcT5AhBIkMw7Sv3e7_h-107" value="businessID" style="text;strokeColor=none;fillColor=none;align=left;verticalAlign=middle;spacingLeft=4;spacingRight=4;overflow=hidden;points=[[0,0.5],[1,0.5]];portConstraint=eastwest;rotatable=0;fontStyle=4" parent="xQcT5AhBIkMw7Sv3e7_h-106" vertex="1">
                    <mxGeometry y="30" width="140" height="20" as="geometry"/>
                </mxCell>
                <mxCell id="xQcT5AhBIkMw7Sv3e7_h-108" value="userID" style="text;strokeColor=none;fillColor=none;align=left;verticalAlign=middle;spacingLeft=4;spacingRight=4;overflow=hidden;points=[[0,0.5],[1,0.5]];portConstraint=eastwest;rotatable=0;fontStyle=4" parent="xQcT5AhBIkMw7Sv3e7_h-106" vertex="1">
                    <mxGeometry y="50" width="140" height="20" as="geometry"/>
                </mxCell>
                <mxCell id="xQcT5AhBIkMw7Sv3e7_h-116" value="text" style="text;strokeColor=none;fillColor=none;align=left;verticalAlign=middle;spacingLeft=4;spacingRight=4;overflow=hidden;points=[[0,0.5],[1,0.5]];portConstraint=eastwest;rotatable=0;fontStyle=0" parent="xQcT5AhBIkMw7Sv3e7_h-106" vertex="1">
                    <mxGeometry y="70" width="140" height="20" as="geometry"/>
                </mxCell>
                <mxCell id="xQcT5AhBIkMw7Sv3e7_h-117" value="date" style="text;strokeColor=none;fillColor=none;align=left;verticalAlign=middle;spacingLeft=4;spacingRight=4;overflow=hidden;points=[[0,0.5],[1,0.5]];portConstraint=eastwest;rotatable=0;fontStyle=0" parent="xQcT5AhBIkMw7Sv3e7_h-106" vertex="1">
                    <mxGeometry y="90" width="140" height="20" as="geometry"/>
                </mxCell>
                <mxCell id="67" value="Users" style="swimlane;fontStyle=0;childLayout=stackLayout;horizontal=1;startSize=30;horizontalStack=0;resizeParent=1;resizeParentMax=0;resizeLast=0;collapsible=1;marginBottom=0;" parent="1" vertex="1">
                    <mxGeometry x="260" y="120" width="140" height="230" as="geometry"/>
                </mxCell>
                <mxCell id="68" value="userID" style="text;strokeColor=none;fillColor=none;align=left;verticalAlign=middle;spacingLeft=4;spacingRight=4;overflow=hidden;points=[[0,0.5],[1,0.5]];portConstraint=eastwest;rotatable=0;fontStyle=4" parent="67" vertex="1">
                    <mxGeometry y="30" width="140" height="20" as="geometry"/>
                </mxCell>
                <mxCell id="69" value="name" style="text;strokeColor=none;fillColor=none;align=left;verticalAlign=middle;spacingLeft=4;spacingRight=4;overflow=hidden;points=[[0,0.5],[1,0.5]];portConstraint=eastwest;rotatable=0;fontStyle=0" parent="67" vertex="1">
                    <mxGeometry y="50" width="140" height="20" as="geometry"/>
                </mxCell>
                <mxCell id="71" value="yelping_since" style="text;strokeColor=none;fillColor=none;align=left;verticalAlign=middle;spacingLeft=4;spacingRight=4;overflow=hidden;points=[[0,0.5],[1,0.5]];portConstraint=eastwest;rotatable=0;fontStyle=0" parent="67" vertex="1">
                    <mxGeometry y="70" width="140" height="20" as="geometry"/>
                </mxCell>
                <mxCell id="xQcT5AhBIkMw7Sv3e7_h-196" value="{elite}" style="text;strokeColor=none;fillColor=none;align=left;verticalAlign=middle;spacingLeft=4;spacingRight=4;overflow=hidden;points=[[0,0.5],[1,0.5]];portConstraint=eastwest;rotatable=0;fontStyle=0" parent="67" vertex="1">
                    <mxGeometry y="90" width="140" height="140" as="geometry"/>
                </mxCell>
                <mxCell id="77" value="Reviews_Tags" style="swimlane;fontStyle=0;childLayout=stackLayout;horizontal=1;startSize=30;horizontalStack=0;resizeParent=1;resizeParentMax=0;resizeLast=0;collapsible=1;marginBottom=0;" parent="1" vertex="1">
                    <mxGeometry x="340" y="1240" width="140" height="110" as="geometry"/>
                </mxCell>
                <mxCell id="78" value="reviewID" style="text;strokeColor=none;fillColor=none;align=left;verticalAlign=middle;spacingLeft=4;spacingRight=4;overflow=hidden;points=[[0,0.5],[1,0.5]];portConstraint=eastwest;rotatable=0;fontStyle=4" parent="77" vertex="1">
                    <mxGeometry y="30" width="140" height="20" as="geometry"/>
                </mxCell>
                <mxCell id="82" value="useful" style="text;strokeColor=none;fillColor=none;align=left;verticalAlign=middle;spacingLeft=4;spacingRight=4;overflow=hidden;points=[[0,0.5],[1,0.5]];portConstraint=eastwest;rotatable=0;fontStyle=0" parent="77" vertex="1">
                    <mxGeometry y="50" width="140" height="20" as="geometry"/>
                </mxCell>
                <mxCell id="83" value="funny" style="text;strokeColor=none;fillColor=none;align=left;verticalAlign=middle;spacingLeft=4;spacingRight=4;overflow=hidden;points=[[0,0.5],[1,0.5]];portConstraint=eastwest;rotatable=0;fontStyle=0" parent="77" vertex="1">
                    <mxGeometry y="70" width="140" height="20" as="geometry"/>
                </mxCell>
                <mxCell id="84" value="cool" style="text;strokeColor=none;fillColor=none;align=left;verticalAlign=middle;spacingLeft=4;spacingRight=4;overflow=hidden;points=[[0,0.5],[1,0.5]];portConstraint=eastwest;rotatable=0;fontStyle=0" parent="77" vertex="1">
                    <mxGeometry y="90" width="140" height="20" as="geometry"/>
                </mxCell>
                <mxCell id="xQcT5AhBIkMw7Sv3e7_h-125" value="Tags" style="swimlane;fontStyle=0;childLayout=stackLayout;horizontal=1;startSize=30;horizontalStack=0;resizeParent=1;resizeParentMax=0;resizeLast=0;collapsible=1;marginBottom=0;" parent="1" vertex="1">
                    <mxGeometry x="90" y="1150" width="140" height="110" as="geometry"/>
                </mxCell>
                <mxCell id="xQcT5AhBIkMw7Sv3e7_h-126" value="userID" style="text;strokeColor=none;fillColor=none;align=left;verticalAlign=middle;spacingLeft=4;spacingRight=4;overflow=hidden;points=[[0,0.5],[1,0.5]];portConstraint=eastwest;rotatable=0;fontStyle=4" parent="xQcT5AhBIkMw7Sv3e7_h-125" vertex="1">
                    <mxGeometry y="30" width="140" height="20" as="geometry"/>
                </mxCell>
                <mxCell id="xQcT5AhBIkMw7Sv3e7_h-159" value="useful" style="text;strokeColor=none;fillColor=none;align=left;verticalAlign=middle;spacingLeft=4;spacingRight=4;overflow=hidden;points=[[0,0.5],[1,0.5]];portConstraint=eastwest;rotatable=0;fontStyle=0" parent="xQcT5AhBIkMw7Sv3e7_h-125" vertex="1">
                    <mxGeometry y="50" width="140" height="20" as="geometry"/>
                </mxCell>
                <mxCell id="xQcT5AhBIkMw7Sv3e7_h-160" value="funny" style="text;strokeColor=none;fillColor=none;align=left;verticalAlign=middle;spacingLeft=4;spacingRight=4;overflow=hidden;points=[[0,0.5],[1,0.5]];portConstraint=eastwest;rotatable=0;fontStyle=0" parent="xQcT5AhBIkMw7Sv3e7_h-125" vertex="1">
                    <mxGeometry y="70" width="140" height="20" as="geometry"/>
                </mxCell>
                <mxCell id="xQcT5AhBIkMw7Sv3e7_h-138" value="cool" style="text;strokeColor=none;fillColor=none;align=left;verticalAlign=middle;spacingLeft=4;spacingRight=4;overflow=hidden;points=[[0,0.5],[1,0.5]];portConstraint=eastwest;rotatable=0;fontStyle=0" parent="xQcT5AhBIkMw7Sv3e7_h-125" vertex="1">
                    <mxGeometry y="90" width="140" height="20" as="geometry"/>
                </mxCell>
                <mxCell id="xQcT5AhBIkMw7Sv3e7_h-139" value="Compliments" style="swimlane;fontStyle=0;childLayout=stackLayout;horizontal=1;startSize=30;horizontalStack=0;resizeParent=1;resizeParentMax=0;resizeLast=0;collapsible=1;marginBottom=0;" parent="1" vertex="1">
                    <mxGeometry x="-120" y="1140" width="140" height="270" as="geometry"/>
                </mxCell>
                <mxCell id="xQcT5AhBIkMw7Sv3e7_h-140" value="userID" style="text;strokeColor=none;fillColor=none;align=left;verticalAlign=middle;spacingLeft=4;spacingRight=4;overflow=hidden;points=[[0,0.5],[1,0.5]];portConstraint=eastwest;rotatable=0;fontStyle=4" parent="xQcT5AhBIkMw7Sv3e7_h-139" vertex="1">
                    <mxGeometry y="30" width="140" height="20" as="geometry"/>
                </mxCell>
                <mxCell id="xQcT5AhBIkMw7Sv3e7_h-141" value="hot" style="text;strokeColor=none;fillColor=none;align=left;verticalAlign=middle;spacingLeft=4;spacingRight=4;overflow=hidden;points=[[0,0.5],[1,0.5]];portConstraint=eastwest;rotatable=0;fontStyle=0" parent="xQcT5AhBIkMw7Sv3e7_h-139" vertex="1">
                    <mxGeometry y="50" width="140" height="20" as="geometry"/>
                </mxCell>
                <mxCell id="xQcT5AhBIkMw7Sv3e7_h-142" value="more" style="text;strokeColor=none;fillColor=none;align=left;verticalAlign=middle;spacingLeft=4;spacingRight=4;overflow=hidden;points=[[0,0.5],[1,0.5]];portConstraint=eastwest;rotatable=0;fontStyle=0" parent="xQcT5AhBIkMw7Sv3e7_h-139" vertex="1">
                    <mxGeometry y="70" width="140" height="20" as="geometry"/>
                </mxCell>
                <mxCell id="xQcT5AhBIkMw7Sv3e7_h-143" value="profile" style="text;strokeColor=none;fillColor=none;align=left;verticalAlign=middle;spacingLeft=4;spacingRight=4;overflow=hidden;points=[[0,0.5],[1,0.5]];portConstraint=eastwest;rotatable=0;fontStyle=0" parent="xQcT5AhBIkMw7Sv3e7_h-139" vertex="1">
                    <mxGeometry y="90" width="140" height="20" as="geometry"/>
                </mxCell>
                <mxCell id="xQcT5AhBIkMw7Sv3e7_h-144" value="cute" style="text;strokeColor=none;fillColor=none;align=left;verticalAlign=middle;spacingLeft=4;spacingRight=4;overflow=hidden;points=[[0,0.5],[1,0.5]];portConstraint=eastwest;rotatable=0;fontStyle=0" parent="xQcT5AhBIkMw7Sv3e7_h-139" vertex="1">
                    <mxGeometry y="110" width="140" height="20" as="geometry"/>
                </mxCell>
                <mxCell id="xQcT5AhBIkMw7Sv3e7_h-145" value="list" style="text;strokeColor=none;fillColor=none;align=left;verticalAlign=middle;spacingLeft=4;spacingRight=4;overflow=hidden;points=[[0,0.5],[1,0.5]];portConstraint=eastwest;rotatable=0;fontStyle=0" parent="xQcT5AhBIkMw7Sv3e7_h-139" vertex="1">
                    <mxGeometry y="130" width="140" height="20" as="geometry"/>
                </mxCell>
                <mxCell id="xQcT5AhBIkMw7Sv3e7_h-146" value="note" style="text;strokeColor=none;fillColor=none;align=left;verticalAlign=middle;spacingLeft=4;spacingRight=4;overflow=hidden;points=[[0,0.5],[1,0.5]];portConstraint=eastwest;rotatable=0;fontStyle=0" parent="xQcT5AhBIkMw7Sv3e7_h-139" vertex="1">
                    <mxGeometry y="150" width="140" height="20" as="geometry"/>
                </mxCell>
                <mxCell id="xQcT5AhBIkMw7Sv3e7_h-147" value="plain" style="text;strokeColor=none;fillColor=none;align=left;verticalAlign=middle;spacingLeft=4;spacingRight=4;overflow=hidden;points=[[0,0.5],[1,0.5]];portConstraint=eastwest;rotatable=0;fontStyle=0" parent="xQcT5AhBIkMw7Sv3e7_h-139" vertex="1">
                    <mxGeometry y="170" width="140" height="20" as="geometry"/>
                </mxCell>
                <mxCell id="xQcT5AhBIkMw7Sv3e7_h-148" value="cool" style="text;strokeColor=none;fillColor=none;align=left;verticalAlign=middle;spacingLeft=4;spacingRight=4;overflow=hidden;points=[[0,0.5],[1,0.5]];portConstraint=eastwest;rotatable=0;fontStyle=0" parent="xQcT5AhBIkMw7Sv3e7_h-139" vertex="1">
                    <mxGeometry y="190" width="140" height="20" as="geometry"/>
                </mxCell>
                <mxCell id="xQcT5AhBIkMw7Sv3e7_h-149" value="funny" style="text;strokeColor=none;fillColor=none;align=left;verticalAlign=middle;spacingLeft=4;spacingRight=4;overflow=hidden;points=[[0,0.5],[1,0.5]];portConstraint=eastwest;rotatable=0;fontStyle=0" parent="xQcT5AhBIkMw7Sv3e7_h-139" vertex="1">
                    <mxGeometry y="210" width="140" height="20" as="geometry"/>
                </mxCell>
                <mxCell id="xQcT5AhBIkMw7Sv3e7_h-150" value="writer" style="text;strokeColor=none;fillColor=none;align=left;verticalAlign=middle;spacingLeft=4;spacingRight=4;overflow=hidden;points=[[0,0.5],[1,0.5]];portConstraint=eastwest;rotatable=0;fontStyle=0" parent="xQcT5AhBIkMw7Sv3e7_h-139" vertex="1">
                    <mxGeometry y="230" width="140" height="20" as="geometry"/>
                </mxCell>
                <mxCell id="xQcT5AhBIkMw7Sv3e7_h-152" value="photos" style="text;strokeColor=none;fillColor=none;align=left;verticalAlign=middle;spacingLeft=4;spacingRight=4;overflow=hidden;points=[[0,0.5],[1,0.5]];portConstraint=eastwest;rotatable=0;fontStyle=0" parent="xQcT5AhBIkMw7Sv3e7_h-139" vertex="1">
                    <mxGeometry y="250" width="140" height="20" as="geometry"/>
                </mxCell>
                <mxCell id="xQcT5AhBIkMw7Sv3e7_h-189" value="" style="endArrow=classic;html=1;" parent="1" source="xQcT5AhBIkMw7Sv3e7_h-76" edge="1">
                    <mxGeometry width="50" height="50" relative="1" as="geometry">
                        <mxPoint x="-200.5" y="840" as="sourcePoint"/>
                        <mxPoint x="-200" y="850" as="targetPoint"/>
                    </mxGeometry>
                </mxCell>
                <mxCell id="xQcT5AhBIkMw7Sv3e7_h-193" value="leaves" style="shape=rhombus;double=1;perimeter=rhombusPerimeter;whiteSpace=wrap;html=1;align=center;" parent="1" vertex="1">
                    <mxGeometry x="10" y="160" width="120" height="60" as="geometry"/>
                </mxCell>
                <mxCell id="xQcT5AhBIkMw7Sv3e7_h-206" value="friends" style="shape=rhombus;perimeter=rhombusPerimeter;whiteSpace=wrap;html=1;align=center;" parent="1" vertex="1">
                    <mxGeometry x="480" y="200" width="120" height="60" as="geometry"/>
                </mxCell>
                <mxCell id="xQcT5AhBIkMw7Sv3e7_h-211" value="" style="endArrow=none;html=1;rounded=0;" parent="1" edge="1">
                    <mxGeometry relative="1" as="geometry">
                        <mxPoint x="400" y="250" as="sourcePoint"/>
                        <mxPoint x="520" y="250" as="targetPoint"/>
                    </mxGeometry>
                </mxCell>
                <mxCell id="xQcT5AhBIkMw7Sv3e7_h-212" value="user_id&amp;nbsp; &amp;nbsp; 0:*" style="resizable=0;html=1;align=right;verticalAlign=bottom;" parent="xQcT5AhBIkMw7Sv3e7_h-211" connectable="0" vertex="1">
                    <mxGeometry x="1" relative="1" as="geometry">
                        <mxPoint x="-40" as="offset"/>
                    </mxGeometry>
                </mxCell>
                <mxCell id="xQcT5AhBIkMw7Sv3e7_h-213" value="" style="endArrow=none;html=1;rounded=0;" parent="1" edge="1">
                    <mxGeometry relative="1" as="geometry">
                        <mxPoint x="400" y="210" as="sourcePoint"/>
                        <mxPoint x="520" y="210" as="targetPoint"/>
                    </mxGeometry>
                </mxCell>
                <mxCell id="xQcT5AhBIkMw7Sv3e7_h-214" value="friend_id&amp;nbsp; &amp;nbsp; 0:*" style="resizable=0;html=1;align=right;verticalAlign=bottom;" parent="xQcT5AhBIkMw7Sv3e7_h-213" connectable="0" vertex="1">
                    <mxGeometry x="1" relative="1" as="geometry">
                        <mxPoint x="-34" as="offset"/>
                    </mxGeometry>
                </mxCell>
                <mxCell id="xQcT5AhBIkMw7Sv3e7_h-216" value="" style="endArrow=none;html=1;rounded=0;" parent="1" target="xQcT5AhBIkMw7Sv3e7_h-193" edge="1">
                    <mxGeometry relative="1" as="geometry">
                        <mxPoint x="-120" y="189.5" as="sourcePoint"/>
                        <mxPoint y="189.5" as="targetPoint"/>
                    </mxGeometry>
                </mxCell>
                <mxCell id="xQcT5AhBIkMw7Sv3e7_h-217" value="business:user&amp;nbsp; 0:*&lt;br&gt;business:review&amp;nbsp; 0:*" style="resizable=0;html=1;align=left;verticalAlign=bottom;" parent="xQcT5AhBIkMw7Sv3e7_h-216" connectable="0" vertex="1">
                    <mxGeometry x="1" relative="1" as="geometry">
                        <mxPoint x="-127" as="offset"/>
                    </mxGeometry>
                </mxCell>
                <mxCell id="xQcT5AhBIkMw7Sv3e7_h-218" value="" style="endArrow=none;html=1;rounded=0;" parent="1" edge="1">
                    <mxGeometry relative="1" as="geometry">
                        <mxPoint x="130" y="189.5" as="sourcePoint"/>
                        <mxPoint x="260.3141361256544" y="189.8429319371728" as="targetPoint"/>
                    </mxGeometry>
                </mxCell>
                <mxCell id="xQcT5AhBIkMw7Sv3e7_h-219" value="user:business&amp;nbsp; 0:*&lt;br&gt;user:review&amp;nbsp; 0:*" style="resizable=0;html=1;align=left;verticalAlign=bottom;" parent="xQcT5AhBIkMw7Sv3e7_h-218" connectable="0" vertex="1">
                    <mxGeometry x="1" relative="1" as="geometry">
                        <mxPoint x="-110" as="offset"/>
                    </mxGeometry>
                </mxCell>
                <mxCell id="xQcT5AhBIkMw7Sv3e7_h-221" value="" style="endArrow=none;html=1;rounded=0;entryX=0.501;entryY=1.054;entryDx=0;entryDy=0;entryPerimeter=0;" parent="1" target="63" edge="1">
                    <mxGeometry relative="1" as="geometry">
                        <mxPoint x="70" y="159" as="sourcePoint"/>
                        <mxPoint x="200.3141361256544" y="159.3429319371728" as="targetPoint"/>
                    </mxGeometry>
                </mxCell>
                <mxCell id="xQcT5AhBIkMw7Sv3e7_h-222" value="review:user&amp;nbsp; 1:1&lt;br&gt;review:business 1:1" style="resizable=0;html=1;align=left;verticalAlign=bottom;" parent="xQcT5AhBIkMw7Sv3e7_h-221" connectable="0" vertex="1">
                    <mxGeometry x="1" relative="1" as="geometry">
                        <mxPoint x="10" y="39" as="offset"/>
                    </mxGeometry>
                </mxCell>
                <mxCell id="xQcT5AhBIkMw7Sv3e7_h-223" value="user_compliment" style="shape=rhombus;perimeter=rhombusPerimeter;whiteSpace=wrap;html=1;align=center;" parent="1" vertex="1">
                    <mxGeometry x="480" y="110" width="120" height="60" as="geometry"/>
                </mxCell>
                <mxCell id="xQcT5AhBIkMw7Sv3e7_h-224" value="" style="endArrow=none;html=1;rounded=0;" parent="1" edge="1">
                    <mxGeometry relative="1" as="geometry">
                        <mxPoint x="400" y="160" as="sourcePoint"/>
                        <mxPoint x="520" y="160" as="targetPoint"/>
                    </mxGeometry>
                </mxCell>
                <mxCell id="xQcT5AhBIkMw7Sv3e7_h-225" value="user_id&amp;nbsp; &amp;nbsp; 0:*" style="resizable=0;html=1;align=right;verticalAlign=bottom;" parent="xQcT5AhBIkMw7Sv3e7_h-224" connectable="0" vertex="1">
                    <mxGeometry x="1" relative="1" as="geometry">
                        <mxPoint x="-40" as="offset"/>
                    </mxGeometry>
                </mxCell>
                <mxCell id="xQcT5AhBIkMw7Sv3e7_h-226" value="" style="endArrow=none;html=1;rounded=0;" parent="1" edge="1">
                    <mxGeometry relative="1" as="geometry">
                        <mxPoint x="400" y="120" as="sourcePoint"/>
                        <mxPoint x="520" y="120" as="targetPoint"/>
                    </mxGeometry>
                </mxCell>
                <mxCell id="xQcT5AhBIkMw7Sv3e7_h-227" value="complementer_id&amp;nbsp; &amp;nbsp; 0:*" style="resizable=0;html=1;align=right;verticalAlign=bottom;" parent="xQcT5AhBIkMw7Sv3e7_h-226" connectable="0" vertex="1">
                    <mxGeometry x="1" relative="1" as="geometry">
                        <mxPoint x="10" as="offset"/>
                    </mxGeometry>
                </mxCell>
                <mxCell id="xQcT5AhBIkMw7Sv3e7_h-238" value="{tag}" style="rounded=0;whiteSpace=wrap;html=1;dashed=1;" parent="1" vertex="1">
                    <mxGeometry x="520" y="60" width="40" height="20" as="geometry"/>
                </mxCell>
                <mxCell id="xQcT5AhBIkMw7Sv3e7_h-242" value="" style="endArrow=none;dashed=1;html=1;exitX=0.5;exitY=0;exitDx=0;exitDy=0;" parent="1" source="xQcT5AhBIkMw7Sv3e7_h-223" edge="1">
                    <mxGeometry width="50" height="50" relative="1" as="geometry">
                        <mxPoint x="490" y="110" as="sourcePoint"/>
                        <mxPoint x="540" y="80" as="targetPoint"/>
                    </mxGeometry>
                </mxCell>
                <mxCell id="xQcT5AhBIkMw7Sv3e7_h-243" value="leaves" style="shape=rhombus;double=1;perimeter=rhombusPerimeter;whiteSpace=wrap;html=1;align=center;" parent="1" vertex="1">
                    <mxGeometry x="9.69" y="348.91999999999996" width="120" height="60" as="geometry"/>
                </mxCell>
                <mxCell id="xQcT5AhBIkMw7Sv3e7_h-244" value="" style="endArrow=none;html=1;rounded=0;" parent="1" target="xQcT5AhBIkMw7Sv3e7_h-243" edge="1">
                    <mxGeometry relative="1" as="geometry">
                        <mxPoint x="-120.31" y="378.41999999999996" as="sourcePoint"/>
                        <mxPoint x="-0.3100000000000005" y="378.41999999999996" as="targetPoint"/>
                    </mxGeometry>
                </mxCell>
                <mxCell id="xQcT5AhBIkMw7Sv3e7_h-245" value="business:user&amp;nbsp; 0:*&lt;br&gt;business:tip&amp;nbsp; 0:*" style="resizable=0;html=1;align=left;verticalAlign=bottom;" parent="xQcT5AhBIkMw7Sv3e7_h-244" connectable="0" vertex="1">
                    <mxGeometry x="1" relative="1" as="geometry">
                        <mxPoint x="-128" as="offset"/>
                    </mxGeometry>
                </mxCell>
                <mxCell id="xQcT5AhBIkMw7Sv3e7_h-246" value="" style="endArrow=none;html=1;rounded=0;" parent="1" target="xQcT5AhBIkMw7Sv3e7_h-196" edge="1">
                    <mxGeometry relative="1" as="geometry">
                        <mxPoint x="128.69" y="378.41999999999996" as="sourcePoint"/>
                        <mxPoint x="327" y="350" as="targetPoint"/>
                        <Array as="points">
                            <mxPoint x="328" y="378"/>
                        </Array>
                    </mxGeometry>
                </mxCell>
                <mxCell id="xQcT5AhBIkMw7Sv3e7_h-247" value="user:business&amp;nbsp; 0:*&lt;br&gt;user:tip&amp;nbsp; 0:*" style="resizable=0;html=1;align=left;verticalAlign=bottom;" parent="xQcT5AhBIkMw7Sv3e7_h-246" connectable="0" vertex="1">
                    <mxGeometry x="1" relative="1" as="geometry">
                        <mxPoint x="-189" y="29" as="offset"/>
                    </mxGeometry>
                </mxCell>
                <mxCell id="xQcT5AhBIkMw7Sv3e7_h-248" value="" style="endArrow=none;html=1;rounded=0;entryX=0.501;entryY=1.054;entryDx=0;entryDy=0;entryPerimeter=0;" parent="1" edge="1">
                    <mxGeometry relative="1" as="geometry">
                        <mxPoint x="69.5" y="506.8399999999999" as="sourcePoint"/>
                        <mxPoint x="69.6400000000001" y="408.9199999999999" as="targetPoint"/>
                    </mxGeometry>
                </mxCell>
                <mxCell id="xQcT5AhBIkMw7Sv3e7_h-249" value="tip:user&amp;nbsp; 1:1&lt;br&gt;tips:business 1:1" style="resizable=0;html=1;align=left;verticalAlign=bottom;" parent="xQcT5AhBIkMw7Sv3e7_h-248" connectable="0" vertex="1">
                    <mxGeometry x="1" relative="1" as="geometry">
                        <mxPoint x="10" y="101" as="offset"/>
                    </mxGeometry>
                </mxCell>
                <mxCell id="xQcT5AhBIkMw7Sv3e7_h-253" value="following" style="shape=rhombus;perimeter=rhombusPerimeter;whiteSpace=wrap;html=1;align=center;" parent="1" vertex="1">
                    <mxGeometry x="480" y="290" width="120" height="60" as="geometry"/>
                </mxCell>
                <mxCell id="xQcT5AhBIkMw7Sv3e7_h-254" value="" style="endArrow=none;html=1;rounded=0;" parent="1" edge="1">
                    <mxGeometry relative="1" as="geometry">
                        <mxPoint x="400" y="340" as="sourcePoint"/>
                        <mxPoint x="520" y="340" as="targetPoint"/>
                    </mxGeometry>
                </mxCell>
                <mxCell id="xQcT5AhBIkMw7Sv3e7_h-255" value="user_id&amp;nbsp; &amp;nbsp; 0:*" style="resizable=0;html=1;align=right;verticalAlign=bottom;" parent="xQcT5AhBIkMw7Sv3e7_h-254" connectable="0" vertex="1">
                    <mxGeometry x="1" relative="1" as="geometry">
                        <mxPoint x="-40" as="offset"/>
                    </mxGeometry>
                </mxCell>
                <mxCell id="xQcT5AhBIkMw7Sv3e7_h-256" value="" style="endArrow=none;html=1;rounded=0;" parent="1" edge="1">
                    <mxGeometry relative="1" as="geometry">
                        <mxPoint x="400" y="300" as="sourcePoint"/>
                        <mxPoint x="520" y="300" as="targetPoint"/>
                    </mxGeometry>
                </mxCell>
                <mxCell id="xQcT5AhBIkMw7Sv3e7_h-257" value="fan_id&amp;nbsp; &amp;nbsp; 0:*" style="resizable=0;html=1;align=right;verticalAlign=bottom;" parent="xQcT5AhBIkMw7Sv3e7_h-256" connectable="0" vertex="1">
                    <mxGeometry x="1" relative="1" as="geometry">
                        <mxPoint x="-49" as="offset"/>
                    </mxGeometry>
                </mxCell>
                <mxCell id="xQcT5AhBIkMw7Sv3e7_h-259" value="tip_compliment" style="shape=rhombus;perimeter=rhombusPerimeter;whiteSpace=wrap;html=1;align=center;" parent="1" vertex="1">
                    <mxGeometry x="300" y="545" width="120" height="60" as="geometry"/>
                </mxCell>
                <mxCell id="xQcT5AhBIkMw7Sv3e7_h-260" value="" style="endArrow=none;html=1;rounded=0;entryX=0;entryY=0.5;entryDx=0;entryDy=0;" parent="1" target="xQcT5AhBIkMw7Sv3e7_h-259" edge="1">
                    <mxGeometry relative="1" as="geometry">
                        <mxPoint x="140" y="575" as="sourcePoint"/>
                        <mxPoint x="260" y="590" as="targetPoint"/>
                    </mxGeometry>
                </mxCell>
                <mxCell id="xQcT5AhBIkMw7Sv3e7_h-261" value="0:*" style="resizable=0;html=1;align=right;verticalAlign=bottom;" parent="xQcT5AhBIkMw7Sv3e7_h-260" connectable="0" vertex="1">
                    <mxGeometry x="1" relative="1" as="geometry">
                        <mxPoint x="-140" as="offset"/>
                    </mxGeometry>
                </mxCell>
                <mxCell id="xQcT5AhBIkMw7Sv3e7_h-262" value="" style="endArrow=none;html=1;rounded=0;entryX=0.5;entryY=0;entryDx=0;entryDy=0;" parent="1" edge="1" target="xQcT5AhBIkMw7Sv3e7_h-259">
                    <mxGeometry relative="1" as="geometry">
                        <mxPoint x="360" y="349" as="sourcePoint"/>
                        <mxPoint x="360" y="540" as="targetPoint"/>
                    </mxGeometry>
                </mxCell>
                <mxCell id="xQcT5AhBIkMw7Sv3e7_h-263" value="0:1" style="resizable=0;html=1;align=right;verticalAlign=bottom;" parent="xQcT5AhBIkMw7Sv3e7_h-262" connectable="0" vertex="1">
                    <mxGeometry x="1" relative="1" as="geometry">
                        <mxPoint x="20" y="-170" as="offset"/>
                    </mxGeometry>
                </mxCell>
            </root>
        </mxGraphModel>
    </diagram>
    <diagram id="fZ9Bih2k9W5TfTMfVxp3" name="Page-2">
        <mxGraphModel grid="1" gridSize="10" guides="1" tooltips="1" connect="1" arrows="1" page="1" fold="1" pageScale="1" pageWidth="850" pageHeight="1100" math="0" shadow="0">
            <root>
                <mxCell id="Orq87oeAwf4YM02g8B8q-0"/>
                <mxCell id="Orq87oeAwf4YM02g8B8q-1" parent="Orq87oeAwf4YM02g8B8q-0"/>
            </root>
        </mxGraphModel>
    </diagram>
</mxfile>